<?xml version="1.0" encoding="UTF-8"?>
<svg width="1024px" height="1024px" viewBox="0 0 1024 1024" version="1.1" xmlns="http://www.w3.org/2000/svg" xmlns:xlink="http://www.w3.org/1999/xlink">
    <!-- Generator: Sketch 50.2 (55047) - http://www.bohemiancoding.com/sketch -->
    <title>CSV</title>
    <desc>Created with Sketch.</desc>
    <defs></defs>
    <g id="CSV" stroke="none" stroke-width="1" fill="none" fill-rule="evenodd">
        <g>
            <path d="M328,64 C305.90861,64 288,81.90861 288,104 L288,920 C288,942.09139 305.90861,960 328,960 L920,960 C942.09139,960 960,942.09139 960,920 L960,285.823376 C960,275.214717 955.785726,265.04056 948.284271,257.539105 L766.460895,75.7157288 C758.95944,68.2142736 748.785283,64 738.176624,64 L328,64 Z M224,824 L288,824 L288,192 L224,192 L224,104 C224,46.562386 270.562386,-6.71857631e-13 328,-6.82121026e-13 L738.176624,-7.10542736e-14 C765.759138,-2.48689958e-14 792.211945,10.9571114 811.715729,30.4608948 L993.539105,212.284271 C1013.04289,231.788055 1024,258.240862 1024,285.823376 L1024,920 C1024,977.437614 977.437614,1024 920,1024 L328,1024 C270.562386,1024 224,977.437614 224,920 L224,824 Z" id="Combined-Shape" fill="#434440" fill-rule="nonzero"></path>
            <path d="M736,32 L792,32 L1008,256 L1008,320 L808,320 C768.235498,320 736,287.764502 736,248 L736,32 Z" id="Rectangle-4" fill="#434440"></path>
            <path d="M64,256 L64,768 L648,768 L648,256 L64,256 Z M44,192 L668,192 C692.300529,192 712,211.699471 712,236 L712,788 C712,812.300529 692.300529,832 668,832 L44,832 C19.699471,832 0,812.300529 0,788 L0,236 C0,211.699471 19.699471,192 44,192 Z" id="Rectangle-2" fill="#4A90E2" fill-rule="nonzero"></path>
            <path d="M257.435257,492.367516 L189.129485,492.367516 L189.129485,438.876111 C189.129485,423.321795 188.399383,413.616301 186.939158,409.759336 C185.478932,405.902372 182.261075,403.973918 177.285491,403.973918 C171.660918,403.973918 168.091531,406.313353 166.577223,410.992294 C165.062915,415.671235 164.305772,425.787711 164.305772,441.342027 L164.305772,583.985774 C164.305772,598.9078 165.062915,608.644909 166.577223,613.197392 C168.091531,617.749875 171.498673,620.026082 176.798752,620.026082 C181.882501,620.026082 185.20852,617.749875 186.776911,613.197392 C188.345302,608.644909 189.129485,597.959381 189.129485,581.140486 L189.129485,542.634262 L257.435257,542.634262 L257.435257,554.584469 C257.435257,586.325391 255.51536,608.834551 251.675507,622.112626 C247.835654,635.390701 239.34484,647.024649 226.202808,657.014819 C213.060777,667.00499 196.863331,672 177.609984,672 C157.599484,672 141.104589,667.763725 128.124805,659.291049 C115.145021,650.818373 106.546043,639.089583 102.327613,624.104327 C98.1091833,609.119071 96,586.578297 96,556.481328 L96,466.759929 C96,444.629804 96.6489795,428.03246 97.9469579,416.967398 C99.2449363,405.902336 103.111772,395.248421 109.547582,385.005335 C115.983392,374.762249 124.906859,366.700681 136.318253,360.820391 C147.729646,354.940101 160.84444,352 175.663027,352 C195.781692,352 212.38475,356.552414 225.472699,365.65738 C238.560648,374.762345 247.159626,386.111768 251.269891,399.705987 C255.380156,413.300206 257.435257,434.449965 257.435257,463.155898 L257.435257,492.367516 Z M426.658346,451.395376 L363.219969,451.395376 L363.219969,428.633076 C363.219969,418.010617 362.408744,411.245223 360.786271,408.336692 C359.163798,405.428162 356.459717,403.973918 352.673947,403.973918 C348.563682,403.973918 345.453989,405.933986 343.344774,409.854179 C341.235559,413.774372 340.180967,419.717802 340.180967,427.684647 C340.180967,437.927733 341.370763,445.641547 343.75039,450.826319 C346.021852,456.011091 352.457565,462.270661 363.057722,469.605216 C393.45205,490.723678 412.596944,508.048144 420.49298,521.579135 C428.389015,535.110125 432.336973,556.923778 432.336973,587.020747 C432.336973,608.897956 430.146668,625.02109 425.765991,635.390634 C421.385314,645.760178 412.92154,654.454025 400.374415,661.472436 C387.82729,668.490847 373.225252,672 356.567863,672 C338.288,672 322.685452,667.953409 309.75975,659.860107 C296.834049,651.766804 288.370275,641.460644 284.368175,628.941316 C280.366075,616.421988 278.365055,598.654926 278.365055,575.639597 L278.365055,555.532899 L341.803432,555.532899 L341.803432,592.901008 C341.803432,604.408672 342.695779,611.806346 344.480499,615.09425 C346.26522,618.382154 349.428994,620.026082 353.971919,620.026082 C358.514843,620.026082 361.894945,617.939559 364.112324,613.766449 C366.329704,609.59334 367.438378,603.396998 367.438378,595.177238 C367.438378,577.093765 365.329194,565.270133 361.110764,559.705987 C356.78417,554.141841 346.13009,544.847329 329.148206,531.82217 C312.166322,518.670553 300.917344,509.123128 295.400936,503.179609 C289.884528,497.23609 285.314631,489.016452 281.691108,478.520451 C278.067585,468.024449 276.25585,454.620117 276.25585,438.307054 C276.25585,414.785893 278.824727,397.587883 283.962559,386.712507 C289.10039,375.837132 297.401919,367.332969 308.867395,361.199763 C320.332871,355.066557 334.177766,352 350.402496,352 C368.141534,352 383.257348,355.351083 395.75039,362.053349 C408.243432,368.755615 416.51792,377.196551 420.574103,387.376408 C424.630285,397.556265 426.658346,414.849117 426.658346,439.255483 L426.658346,451.395376 Z M616,358.449318 L581.279251,665.550682 L477.603744,665.550682 L438.177847,358.449318 L510.215289,358.449318 C518.543983,443.049623 524.492962,514.560467 528.062402,572.983995 C531.631843,513.928177 535.363475,461.448955 539.25741,415.544754 L543.962559,358.449318 L616,358.449318 Z" fill="#4A90E2"></path>
        </g>
    </g>
</svg>
